<svg width="129" height="129" viewBox="0 0 129 129" fill="none" xmlns="http://www.w3.org/2000/svg">
<g filter="url(#filter0_d_121_19)">
<circle cx="64.5" cy="64.5" r="46.5" fill="#FBD16E" fill-opacity="0.51" shape-rendering="crispEdges"/>
</g>
<circle cx="64.5" cy="64.5" r="38.5" fill="#FBD16E" fill-opacity="0.51"/>
<circle cx="64.5" cy="64.5" r="32.5" fill="#FBD16E"/>
<path d="M59.6035 69.3743L59.6286 69.3492L59.65 69.3208C59.993 68.8633 60.4282 68.6458 61 68.6458H68C68.4441 68.6458 69.0173 68.8772 69.35 69.3208C69.7595 69.8669 69.9465 70.3011 69.843 70.8185L69.8402 70.8327L69.8381 70.8471L68.6715 79.1596L68.6714 79.1596L68.6705 79.1671C68.5568 80.0769 67.7545 80.7708 66.8333 80.7708H62.1666C61.2454 80.7708 60.4432 80.0769 60.3294 79.1671L60.3295 79.1671L60.3284 79.1596L59.1667 70.8825C59.1714 70.2014 59.3174 69.6604 59.6035 69.3743ZM68.5208 63.0416C68.5208 65.2446 66.703 67.0624 64.5 67.0624C62.2969 67.0624 60.4791 65.2446 60.4791 63.0416C60.4791 60.8386 62.2969 59.0208 64.5 59.0208C66.703 59.0208 68.5208 60.8386 68.5208 63.0416Z" stroke="#232833"/>
<path d="M71.9375 55.6042C67.8542 51.5209 61.1458 51.5209 57.0625 55.6042C55.1667 57.6459 54 60.2709 54 63.0417C54 65.8126 55.0208 68.4376 57.0625 70.4792C57.3542 70.7709 57.7917 70.7709 58.0833 70.4792C58.375 70.1876 58.375 69.7501 58.0833 69.4584C56.3333 67.7084 55.4583 65.5209 55.4583 63.0417C55.4583 60.5626 56.3333 58.3751 58.0833 56.6251C61.5833 53.1251 67.4167 53.1251 70.9167 56.6251C74.4167 60.1251 74.4167 65.9584 70.9167 69.4584C70.625 69.7501 70.625 70.1876 70.9167 70.4792C71.0625 70.6251 71.2083 70.6251 71.3542 70.6251C71.5 70.6251 71.6458 70.6251 71.7917 70.4792C76.0208 66.3959 76.0208 59.6876 71.9375 55.6042Z" fill="#242934"/>
<path d="M75.2917 52.25C69.3125 46.2708 59.6875 46.2708 53.7084 52.25C47.7292 58.2292 47.7292 67.8542 53.7084 73.8333C54 74.125 54.4375 74.125 54.7292 73.8333C55.0209 73.5417 55.0209 73.1042 54.7292 72.8125C49.3334 67.4167 49.3334 58.6667 54.7292 53.125C60.125 47.7292 68.875 47.7292 74.2709 53.125C79.6667 58.5208 79.6667 67.4167 74.2709 72.8125C73.9792 73.1042 73.9792 73.5417 74.2709 73.8333C74.4167 73.9792 74.5625 73.9792 74.7084 73.9792C74.8542 73.9792 75 73.9792 75.1459 73.8333C81.2709 67.8542 81.2709 58.2292 75.2917 52.25Z" fill="#242934"/>
<defs>
<filter id="filter0_d_121_19" x="0.9" y="0.9" width="127.2" height="127.2" filterUnits="userSpaceOnUse" color-interpolation-filters="sRGB">
<feFlood flood-opacity="0" result="BackgroundImageFix"/>
<feColorMatrix in="SourceAlpha" type="matrix" values="0 0 0 0 0 0 0 0 0 0 0 0 0 0 0 0 0 0 127 0" result="hardAlpha"/>
<feMorphology radius="11" operator="erode" in="SourceAlpha" result="effect1_dropShadow_121_19"/>
<feOffset/>
<feGaussianBlur stdDeviation="14.05"/>
<feComposite in2="hardAlpha" operator="out"/>
<feColorMatrix type="matrix" values="0 0 0 0 0.915833 0 0 0 0 0.806486 0 0 0 0 0.548737 0 0 0 1 0"/>
<feBlend mode="normal" in2="BackgroundImageFix" result="effect1_dropShadow_121_19"/>
<feBlend mode="normal" in="SourceGraphic" in2="effect1_dropShadow_121_19" result="shape"/>
</filter>
</defs>
</svg>
