<svg width="91" height="91" viewBox="0 0 91 91" fill="none" xmlns="http://www.w3.org/2000/svg">
<ellipse cx="45.2489" cy="39.0122" rx="37.3661" ry="34.7122" fill="white"/>
<path d="M62.7881 25.3958C52.6204 33.7131 36.0981 32.5232 24.1511 55.4185C17.2879 59.1113 12.7125 46.2791 14.2376 33.9698C15.7628 21.6605 30.4403 9.22388 43.2154 9.22388C55.9906 9.22388 73.7183 15.5364 62.7881 25.3958Z" fill="#1E1D25"/>
<rect width="108.979" height="5.98404" transform="matrix(0.79091 -0.611932 0.63631 0.771433 0.523071 67.3987)" fill="#1E1D25"/>
<rect width="38.8344" height="5.15801" transform="matrix(0.0268037 0.999641 0.999684 -0.0251432 24.6595 49.7878)" fill="#1E1D25"/>
<rect width="38.8344" height="5.40346" transform="matrix(0.0268037 0.999641 0.999684 -0.0251432 34.8271 44.2834)" fill="#1E1D25"/>
<path d="M44.922 33.2859L46.4618 90.7112L51.8628 90.5754L50.323 33.15L44.922 33.2859Z" fill="#1E1D25"/>
</svg>
