<svg width="129" height="129" viewBox="0 0 129 129" fill="none" xmlns="http://www.w3.org/2000/svg">
<g filter="url(#filter0_d_121_20)">
<circle cx="64.5" cy="64.5" r="46.5" fill="#FBD16E" fill-opacity="0.51" shape-rendering="crispEdges"/>
</g>
<circle cx="64.5" cy="64.5" r="38.5" fill="#FBD16E" fill-opacity="0.51"/>
<circle cx="64.5" cy="64.5" r="32.5" fill="#FBD16E"/>
<g clip-path="url(#clip0_121_20)">
<path d="M78.8125 55.9688V49.0625C78.8125 48.7693 78.575 48.5312 78.2812 48.5312H59.1562C58.8625 48.5312 58.625 48.7693 58.625 49.0625V50.6562H57.0312C56.7375 50.6562 56.5 50.8942 56.5 51.1875V51.7188H54.9062C54.6125 51.7188 54.375 51.9567 54.375 52.25V55.9688H51.1875C49.7228 55.9688 48.5312 57.1603 48.5312 58.625V78.8125C48.5312 80.2772 49.7228 81.4688 51.1875 81.4688H51.7188H78.8125C80.2772 81.4688 81.4688 80.2772 81.4688 78.8125V58.625C81.4688 57.1603 80.2772 55.9688 78.8125 55.9688ZM80.4062 58.625V65.0138C79.9611 64.6765 79.4128 64.4688 78.8125 64.4688V57.0312C79.6912 57.0312 80.4062 57.7463 80.4062 58.625ZM77.75 49.5938V64.4688H59.6875V49.5938H77.75ZM58.625 51.7188V64.4688H57.5625V51.7188H58.625ZM56.5 52.7812V64.4688H55.9688C55.7871 64.4688 55.6091 64.4873 55.4375 64.5224V52.7812H56.5ZM51.1875 80.4062C50.3088 80.4062 49.5938 79.6912 49.5938 78.8125V58.625C49.5938 57.7463 50.3088 57.0312 51.1875 57.0312H54.375V65.0138C53.7338 65.4994 53.3125 66.2612 53.3125 67.125V78.8125C53.3125 79.6912 52.5974 80.4062 51.7188 80.4062H51.1875ZM53.8299 80.4062C54.1673 79.9611 54.375 79.4128 54.375 78.8125V67.125C54.375 66.2463 55.0901 65.5312 55.9688 65.5312H57.0451C56.7077 65.9764 56.5 66.5247 56.5 67.125V78.8125C56.5 79.6912 55.7849 80.4062 54.9062 80.4062H53.8299ZM80.4062 78.8125C80.4062 79.6912 79.6912 80.4062 78.8125 80.4062H57.0174C57.3548 79.9611 57.5625 79.4128 57.5625 78.8125V67.125C57.5625 66.2463 58.2776 65.5312 59.1562 65.5312H78.8125C79.6912 65.5312 80.4062 66.2463 80.4062 67.125V78.8125Z" fill="#242934"/>
<path d="M79.3438 76.1562H72.9688C72.675 76.1562 72.4375 76.3937 72.4375 76.6875V78.8125C72.4375 79.1063 72.675 79.3438 72.9688 79.3438H79.3438C79.6375 79.3438 79.875 79.1063 79.875 78.8125V76.6875C79.875 76.3937 79.6375 76.1562 79.3438 76.1562ZM78.8125 78.2812H73.5V77.2188H78.8125V78.2812Z" fill="#242934"/>
<path d="M71.9062 78.2812H70.8438V79.3438H71.9062V78.2812Z" fill="#242934"/>
<path d="M64.4688 58.0938H62.3438C62.05 58.0938 61.8125 58.3317 61.8125 58.625V63.4062C61.8125 63.6995 62.05 63.9375 62.3438 63.9375H64.4688C64.7625 63.9375 65 63.6995 65 63.4062V58.625C65 58.3317 64.7625 58.0938 64.4688 58.0938ZM63.9375 62.875H62.875V59.1562H63.9375V62.875ZM65.5312 54.375V63.4062C65.5312 63.6995 65.7687 63.9375 66.0625 63.9375H68.1875C68.4813 63.9375 68.7188 63.6995 68.7188 63.4062V54.375C68.7188 54.0817 68.4813 53.8438 68.1875 53.8438H66.0625C65.7687 53.8438 65.5312 54.0817 65.5312 54.375ZM66.5938 54.9062H67.6562V62.875H66.5938V54.9062ZM69.7812 63.9375H71.9062C72.2 63.9375 72.4375 63.6995 72.4375 63.4062V55.9688C72.4375 55.6755 72.2 55.4375 71.9062 55.4375H69.7812C69.4875 55.4375 69.25 55.6755 69.25 55.9688V63.4062C69.25 63.6995 69.4875 63.9375 69.7812 63.9375ZM70.3125 56.5H71.375V62.875H70.3125V56.5ZM73.5 63.9375H75.625C75.9188 63.9375 76.1562 63.6995 76.1562 63.4062V51.1875C76.1562 50.8943 75.9188 50.6562 75.625 50.6562H73.5C73.2062 50.6562 72.9688 50.8943 72.9688 51.1875V63.4062C72.9688 63.6995 73.2062 63.9375 73.5 63.9375ZM74.0312 51.7188H75.0938V62.875H74.0312V51.7188Z" fill="#242934"/>
<path d="M63.4062 50.125H60.2188V51.1875H63.4062V50.125Z" fill="#242934"/>
<path d="M67.6562 50.125H64.4688V51.1875H67.6562V50.125Z" fill="#242934"/>
<path d="M67.6562 51.7188H60.2188V52.7812H67.6562V51.7188Z" fill="#242934"/>
</g>
<defs>
<filter id="filter0_d_121_20" x="0.9" y="0.9" width="127.2" height="127.2" filterUnits="userSpaceOnUse" color-interpolation-filters="sRGB">
<feFlood flood-opacity="0" result="BackgroundImageFix"/>
<feColorMatrix in="SourceAlpha" type="matrix" values="0 0 0 0 0 0 0 0 0 0 0 0 0 0 0 0 0 0 127 0" result="hardAlpha"/>
<feMorphology radius="11" operator="erode" in="SourceAlpha" result="effect1_dropShadow_121_20"/>
<feOffset/>
<feGaussianBlur stdDeviation="14.05"/>
<feComposite in2="hardAlpha" operator="out"/>
<feColorMatrix type="matrix" values="0 0 0 0 0.915833 0 0 0 0 0.806486 0 0 0 0 0.548737 0 0 0 1 0"/>
<feBlend mode="normal" in2="BackgroundImageFix" result="effect1_dropShadow_121_20"/>
<feBlend mode="normal" in="SourceGraphic" in2="effect1_dropShadow_121_20" result="shape"/>
</filter>
<clipPath id="clip0_121_20">
<rect width="34" height="34" fill="white" transform="translate(48 48)"/>
</clipPath>
</defs>
</svg>
