<svg width="129" height="129" viewBox="0 0 129 129" fill="none" xmlns="http://www.w3.org/2000/svg">
<g filter="url(#filter0_d_121_18)">
<circle cx="64.5" cy="64.5" r="46.5" fill="#FBD16E" fill-opacity="0.51" shape-rendering="crispEdges"/>
</g>
<circle cx="64.5" cy="64.5" r="38.5" fill="#FBD16E" fill-opacity="0.51"/>
<circle cx="64.5" cy="64.5" r="32.5" fill="#FBD16E"/>
<path d="M62.6338 69.1714C61.0915 68.319 59.1997 67.7193 57.1019 67.437C56.2168 67.3128 55.3241 67.2503 54.4303 67.25H54.43H53.75V65.75H55.9377C56.5735 65.7542 57.2068 65.8311 57.8252 65.9793L57.8251 65.9794L57.8329 65.9812C58.3836 66.107 58.9194 66.2906 59.4315 66.529C60.533 67.049 61.5088 67.8016 62.2916 68.735C62.4106 68.8769 62.5247 69.0224 62.6338 69.1714ZM75.57 69.75H78.25V76.25H51.75V69.75H54.43H54.4371L54.4442 69.7499C55.2424 69.7347 56.0406 69.7761 56.8329 69.8737C58.8551 70.1523 60.6178 70.7793 61.9171 71.6105C63.2269 72.4485 63.9943 73.4435 64.1948 74.4382L64.1954 74.441C64.2329 74.6234 64.2512 74.8092 64.25 74.9953L65.7477 75.0581C65.7615 74.8811 65.7929 74.7058 65.8414 74.535L65.8514 74.5L65.8579 74.4642C66.0372 73.4782 66.7869 72.4877 68.0954 71.6505C69.3944 70.8195 71.1706 70.1917 73.2209 69.9132L73.2238 69.9128C74.0011 69.8042 74.785 69.7498 75.5698 69.75H75.57ZM74.0613 65.75L76.25 65.75V67.25H75.57V67.25L75.5612 67.2501C74.6615 67.2606 73.7637 67.3332 72.874 67.4675C70.7622 67.7522 68.8585 68.3586 67.3124 69.2213C67.7878 68.5659 68.356 67.9808 69.0009 67.4851C69.9302 66.7708 70.9981 66.2578 72.1365 65.9789C72.7667 65.8281 73.4123 65.7512 74.0603 65.75C74.0606 65.75 74.061 65.75 74.0613 65.75ZM64.9989 68.1558C64.3723 67.1953 63.5944 66.3387 62.6927 65.6206C61.6438 64.7852 60.4498 64.1549 59.1734 63.7599C59.5819 62.7073 60.2699 61.7803 61.1694 61.0826C62.2654 60.2325 63.613 59.7712 65 59.7712C66.387 59.7712 67.7346 60.2325 68.8306 61.0826C69.7272 61.7781 70.4138 62.7015 70.8228 63.75C69.5375 64.1491 68.3364 64.7868 67.2832 65.6318C66.3903 66.3483 65.6199 67.2009 64.9989 68.1558ZM65 58.25C64.1594 58.25 63.3377 58.0007 62.6388 57.5337C61.9399 57.0668 61.3952 56.403 61.0735 55.6264C60.7518 54.8498 60.6677 53.9953 60.8317 53.1709C60.9956 52.3464 61.4004 51.5892 61.9948 50.9948C62.5892 50.4004 63.3464 49.9957 64.1709 49.8317C64.9953 49.6677 65.8498 49.7518 66.6264 50.0735C67.403 50.3952 68.0667 50.9399 68.5337 51.6388C69.0007 52.3377 69.25 53.1594 69.25 54C69.25 54.5581 69.1401 55.1108 68.9265 55.6264C68.7129 56.142 68.3999 56.6106 68.0052 57.0052C67.6106 57.3999 67.142 57.7129 66.6264 57.9265C66.1108 58.1401 65.5581 58.25 65 58.25Z" stroke="#252A35" stroke-width="1.5"/>
<defs>
<filter id="filter0_d_121_18" x="0.9" y="0.9" width="127.2" height="127.2" filterUnits="userSpaceOnUse" color-interpolation-filters="sRGB">
<feFlood flood-opacity="0" result="BackgroundImageFix"/>
<feColorMatrix in="SourceAlpha" type="matrix" values="0 0 0 0 0 0 0 0 0 0 0 0 0 0 0 0 0 0 127 0" result="hardAlpha"/>
<feMorphology radius="11" operator="erode" in="SourceAlpha" result="effect1_dropShadow_121_18"/>
<feOffset/>
<feGaussianBlur stdDeviation="14.05"/>
<feComposite in2="hardAlpha" operator="out"/>
<feColorMatrix type="matrix" values="0 0 0 0 0.915833 0 0 0 0 0.806486 0 0 0 0 0.548737 0 0 0 1 0"/>
<feBlend mode="normal" in2="BackgroundImageFix" result="effect1_dropShadow_121_18"/>
<feBlend mode="normal" in="SourceGraphic" in2="effect1_dropShadow_121_18" result="shape"/>
</filter>
</defs>
</svg>
